<svg xmlns="http://www.w3.org/2000/svg" width="24" height="24" viewBox="0 0 24 24" fill="none" class="css-8n6bc3"><circle cx="12" cy="12" r="11" fill="currentColor"/><path d="M18.7086 8.63031C18.5472 8.02758 18.0736 7.55392 17.4709 7.39258C16.3783 7.09985 12.0002 7.09985 12.0002 7.09985C12.0002 7.09985 7.62199 7.09985 6.53062 7.39258C5.92789 7.55392 5.45423 8.02758 5.29289 8.63031C5.00016 9.72168 5.00016 12.0001 5.00016 12.0001C5.00016 12.0001 5.00016 14.2785 5.29289 15.3699C5.45423 15.9726 5.92789 16.4462 6.53062 16.6076C7.62199 16.9003 12.0002 16.9003 12.0002 16.9003C12.0002 16.9003 16.3783 16.9003 17.4697 16.6076C18.0724 16.4462 18.5461 15.9726 18.7074 15.3699C19.0002 14.2785 19.0002 12.0001 19.0002 12.0001C19.0002 12.0001 19.0002 9.72168 18.7074 8.63031H18.7086Z" fill="white"/><path d="M10.6013 14.0994L14.2396 11.9997L10.6013 9.8999V14.0994Z" fill="currentColor"/></svg>